# Blender 3.3.1
# www.blender.org
mtllib large_ammo_box_240.mtl
o Cube
v 0.404992 0.525699 0.202373
v 0.404992 0.011868 0.202373
v -0.490712 0.528307 0.202373
v -0.490712 0.011868 0.202373
v 0.404992 0.525699 0.000000
v -0.490712 0.528435 0.000000
v 0.410293 0.528435 0.207673
v -0.490123 0.528435 0.207673
v 0.410243 0.361018 0.207638
v -0.482539 0.424845 0.207638
v 0.402363 0.512896 0.132668
v 0.402507 0.219171 0.132668
v 0.421954 0.512896 0.132668
v 0.422098 0.219171 0.132668
v 0.412240 0.266078 0.147550
v 0.412240 0.266078 0.131887
v 0.419659 0.255069 0.138008
v 0.419659 0.255069 0.131887
v 0.429342 0.173266 0.137854
v 0.414522 0.190432 0.147396
v 0.404473 0.254870 0.138008
v 0.404473 0.254870 0.131887
v 0.414156 0.164694 0.137854
v 0.406755 0.186118 0.137854
v 0.427264 0.156888 0.147396
v 0.421941 0.194690 0.137854
v -0.246823 0.524664 0.026554
v 0.151424 0.525866 0.026553
v -0.246894 0.544254 0.026554
v 0.151353 0.545456 0.026553
v 0.404992 0.525699 -0.202373
v 0.404992 0.011868 -0.202373
v -0.490712 0.528123 -0.202373
v -0.490712 0.011868 -0.202373
v 0.410293 0.528435 -0.207673
v -0.490123 0.528435 -0.207673
v 0.410243 0.361018 -0.207638
v -0.482539 0.424845 -0.207638
v 0.402363 0.512896 -0.132668
v 0.402507 0.219171 -0.132668
v 0.421954 0.512896 -0.132668
v 0.422098 0.219171 -0.132668
v 0.412240 0.266078 -0.147550
v 0.412240 0.266078 -0.131887
v 0.419659 0.255069 -0.138008
v 0.419659 0.255069 -0.131887
v 0.429342 0.173266 -0.137854
v 0.414522 0.190432 -0.147396
v 0.404473 0.254870 -0.138008
v 0.404473 0.254870 -0.131887
v 0.414156 0.164694 -0.137854
v 0.406755 0.186118 -0.137854
v 0.427264 0.156888 -0.147396
v 0.421941 0.194690 -0.137854
v -0.246823 0.524664 -0.026554
v 0.151424 0.525866 -0.026553
v -0.246894 0.544254 -0.026554
v 0.151353 0.545456 -0.026553
vn -0.0000 -0.0000 1.0000
vn -0.0000 -1.0000 -0.0000
vn -0.0000 0.0003 -1.0000
vn 0.4915 -0.8709 -0.0000
vn -0.0030 1.0000 -0.0000
vn -0.8293 -0.5589 -0.0000
vn -0.8219 0.5696 -0.0000
vn -0.7650 -0.0256 0.6435
vn 0.0007 -0.0024 1.0000
vn -0.7935 -0.0253 -0.6080
vn -0.7192 -0.2635 -0.6429
vn -0.6760 -0.2477 0.6941
vn -0.9920 0.1259 -0.0000
vn -0.5117 -0.8592 -0.0000
vn 1.0000 0.0036 -0.0000
vn -1.0000 -0.0036 -0.0000
vn -0.0000 -0.0000 -1.0000
vn 1.0000 0.0005 -0.0000
vn -0.0000 0.0003 1.0000
vn -0.7650 -0.0256 -0.6435
vn 0.0007 -0.0024 -1.0000
vn -0.7935 -0.0253 0.6080
vn -0.7192 -0.2635 0.6429
vn -0.6760 -0.2477 -0.6941
vn -1.0000 -0.0000 -0.0000
vn -0.0000 1.0000 -0.0000
vn -1.0000 0.0003 -0.0000
vt 0.513786 0.929005
vt 0.343864 0.929005
vt 0.511325 0.064166
vt 0.341403 0.399029
vt 0.186587 0.579612
vt 0.022960 0.929005
vt 0.197333 0.501810
vt 0.022960 0.064166
vt 0.116759 0.121412
vt 0.285895 0.463796
vt 0.182848 0.688557
vt 0.162852 0.542097
vt 0.348469 0.403755
vt 0.519887 0.940985
vt 0.518273 0.943813
vt 0.170117 0.631319
vt 0.017415 0.940985
vt 0.519043 0.762882
vt 0.518289 0.759897
vt 0.018837 0.764019
vt 0.510837 0.769089
vt 0.510968 0.489804
vt 0.595756 0.877951
vt 0.524310 0.769089
vt 0.524440 0.489804
vt 0.595756 0.403876
vt 0.305002 0.330626
vt 0.299138 0.358590
vt 0.304477 0.322661
vt 0.253627 0.394066
vt 0.275062 0.365220
vt 0.299138 0.358590
vt 0.297115 0.401124
vt 0.315802 0.363939
vt 0.283472 0.412269
vt 0.285415 0.414642
vt 0.438755 0.232396
vt 0.420055 0.253117
vt 0.175754 0.519566
vt 0.397233 0.227783
vt 0.428521 0.187398
vt 0.330135 0.339246
vt 0.307536 0.323131
vt 0.307536 0.323131
vt 0.171065 0.496686
vt 0.477981 0.177889
vt 0.411673 0.212442
vt 1.000000 0.000000
vt 0.442884 0.216365
vt 0.386971 0.238922
vt 0.460849 0.153743
vt 0.483474 0.127155
vt 0.155949 0.488107
vt 1.000000 0.000000
vt 0.398125 0.279683
vt 0.394967 0.280042
vt 0.578451 0.354314
vt 0.579797 0.330844
vt 0.731610 0.330845
vt 0.732096 0.355172
vt 0.578429 0.368298
vt 0.579767 0.330844
vt 0.731579 0.330845
vt 0.732074 0.369156
vt 0.513786 0.929005
vt 0.511325 0.064166
vt 0.511325 0.399029
vt 0.208870 0.685006
vt 0.022960 0.929005
vt 0.197333 0.501810
vt 0.022960 0.064166
vt 0.116759 0.121412
vt 0.308178 0.569190
vt 0.376623 0.527679
vt 0.519887 0.940985
vt 0.021954 0.943813
vt 0.197554 0.752085
vt 0.017415 0.940985
vt 0.519043 0.762882
vt 0.021970 0.765485
vt 0.018837 0.764019
vt 0.510837 0.769089
vt 0.510968 0.489804
vt 0.715676 0.877951
vt 0.524310 0.769089
vt 0.715676 0.403876
vt 0.524440 0.489804
vt 0.305002 0.330626
vt 0.299138 0.358590
vt 0.304477 0.322661
vt 0.253627 0.394066
vt 0.275062 0.365220
vt 0.299138 0.358590
vt 0.297115 0.401124
vt 0.315802 0.363939
vt 0.283472 0.412269
vt 0.285415 0.414642
vt 0.489115 0.165326
vt 0.438755 0.232396
vt 0.420055 0.253117
vt 0.397233 0.227783
vt 0.428521 0.187398
vt 0.330135 0.339246
vt 0.307536 0.323131
vt 0.307536 0.323131
vt 0.484426 0.142445
vt 1.000000 0.000000
vt 0.477981 0.177889
vt 0.411673 0.212442
vt 0.442884 0.216365
vt 0.386971 0.238922
vt 0.491000 0.109346
vt 1.000000 0.000000
vt 0.460849 0.153743
vt 0.483474 0.127155
vt 0.398125 0.279683
vt 0.394967 0.280042
vt 0.579797 0.385433
vt 0.578451 0.354314
vt 0.731610 0.385433
vt 0.732096 0.355172
vt 0.579767 0.385433
vt 0.578429 0.368298
vt 0.731579 0.385433
vt 0.732074 0.369156
s 0
usemtl Material
f 2/3/1 1/1/1 3/6/1 4/8/1
f 35/74/2 7/13/2 8/16/2 6/11/2 36/77/2
f 8/17/3 7/14/3 9/18/3 10/20/3
f 40/83/2 42/87/2 14/25/2 12/22/2
f 11/21/1 12/22/1 14/25/1 13/24/1
f 47/98/4 19/39/4 23/45/4 51/106/4
f 57/122/5 29/62/5 30/63/5 58/124/5
f 15/27/6 16/31/6 18/36/6 17/33/6
f 15/28/7 16/32/7 22/44/7 21/43/7
f 15/29/8 21/42/8 24/49/8 20/41/8
f 17/34/9 21/43/9 24/50/9 26/56/9
f 15/30/10 17/35/10 26/55/10 20/40/10
f 20/40/11 26/55/11 19/37/11 25/51/11
f 20/41/12 24/49/12 23/46/12 25/52/12
f 26/56/1 24/50/1 23/47/1 19/38/1
f 53/112/13 25/53/13 19/39/13 47/98/13
f 53/113/14 25/54/14 23/48/14 51/107/14
f 56/120/15 58/124/15 30/63/15 28/59/15
f 27/57/1 28/60/1 30/64/1 29/61/1
f 29/62/16 57/122/16 55/118/16 27/58/16
f 32/66/17 34/71/17 33/69/17 31/65/17
f 41/84/18 13/23/18 14/26/18 42/86/18
f 36/78/19 38/81/19 37/79/19 35/75/19
f 39/82/17 41/85/17 42/87/17 40/83/17
f 43/88/6 45/94/6 46/97/6 44/92/6
f 43/89/7 49/104/7 50/105/7 44/93/7
f 43/90/20 48/102/20 52/110/20 49/103/20
f 45/95/21 54/117/21 52/111/21 49/104/21
f 43/91/22 48/101/22 54/116/22 45/96/22
f 48/101/23 53/114/23 47/99/23 54/116/23
f 48/102/24 53/115/24 51/108/24 52/110/24
f 54/117/17 47/100/17 51/109/17 52/111/17
f 55/119/17 57/123/17 58/125/17 56/121/17
f 34/72/25 4/9/25 3/7/25 6/12/25 33/70/25
f 2/4/25 1/2/25 31/65/25 32/67/25
f 34/73/26 4/10/26 2/5/26 32/68/26
f 13/24/26 41/85/26 39/82/26 11/21/26
f 37/80/27 9/19/27 7/15/27 35/76/27
l 5 1
l 5 31
