# Blender 3.3.1
# www.blender.org
mtllib Auto_Ammo_240.mtl
o Auto_Ammo_Box
v 0.281215 1.134425 -0.122763
v 0.281215 0.846876 -0.122763
v 0.281215 1.134425 0.031223
v 0.281215 0.846876 0.031223
v 0.034905 1.134425 -0.122763
v 0.034905 0.846876 -0.122763
v 0.034905 1.134425 0.031223
v 0.034905 0.846876 0.031223
v 0.354823 1.206807 -0.122763
v 0.354823 1.206807 0.031223
v -0.028275 1.206194 -0.122763
v -0.028275 1.206194 0.031223
v 0.281215 1.266920 -0.202506
v 0.034905 1.266920 -0.202506
v 0.281215 1.319673 -0.179196
v 0.034905 1.319673 -0.179196
v 0.311234 0.847161 0.065226
v 0.311234 1.009597 0.065226
v 0.290265 0.847161 0.044257
v 0.290265 1.009597 0.044257
v 0.332204 0.847161 0.044257
v 0.332204 1.009597 0.044257
v 0.311234 1.027788 0.061353
v 0.296074 1.027788 0.044257
v 0.326394 1.027788 0.044257
v 0.311234 1.050696 0.061353
v 0.296074 1.050696 0.044257
v 0.326394 1.050696 0.044257
v 0.311234 1.112006 0.044257
v 0.311234 0.847161 0.023287
v 0.311234 1.009597 0.023287
v 0.311234 1.027788 0.027160
v 0.311234 1.050696 0.027160
v 0.264589 0.847161 0.083884
v 0.264589 1.009597 0.083884
v 0.243620 0.847161 0.062915
v 0.243620 1.009597 0.062915
v 0.285559 0.847161 0.062915
v 0.285559 1.009597 0.062915
v 0.264589 1.027788 0.080011
v 0.249429 1.027788 0.062915
v 0.279749 1.027788 0.062915
v 0.264589 1.050696 0.080011
v 0.249429 1.050696 0.062915
v 0.279749 1.050696 0.062915
v 0.264589 1.112006 0.062915
v 0.264589 0.847161 0.041945
v 0.264589 1.009597 0.041945
v 0.264589 1.027788 0.045818
v 0.264589 1.050696 0.045818
v 0.125759 0.871108 0.078517
v 0.275727 0.869223 0.140901
v 0.134038 0.892076 0.059250
v 0.284005 0.890190 0.121634
v 0.133588 0.850139 0.059063
v 0.283556 0.848254 0.121447
v 0.294009 0.869012 0.144312
v 0.300737 0.884171 0.128594
v 0.300412 0.853853 0.128459
v 0.315158 0.868746 0.153109
v 0.321887 0.883905 0.137392
v 0.321562 0.853587 0.137257
v 0.378328 0.868034 0.160871
v 0.141867 0.871108 0.039795
v 0.291834 0.869223 0.102179
v 0.307142 0.869012 0.112741
v 0.328291 0.868746 0.121539
v 0.281215 1.110682 0.031223
v 0.034905 1.110682 0.031223
v 0.281215 1.110682 -0.122763
v 0.034905 1.110682 -0.122763
vn -0.0000 -0.0000 1.0000
vn -1.0000 -0.0000 -0.0000
vn -0.0000 -1.0000 -0.0000
vn 1.0000 -0.0000 -0.0000
vn -0.0000 -0.0000 -1.0000
vn 0.7011 -0.7130 -0.0000
vn -0.7506 -0.6608 -0.0000
vn -0.0000 -0.5157 -0.8568
vn -0.0000 0.4042 -0.9147
vn 0.7071 -0.0000 0.7071
vn -0.7071 -0.0000 0.7071
vn 0.7127 0.1858 0.6764
vn -0.7127 0.1858 0.6764
vn 0.7482 -0.0000 0.6635
vn -0.7482 -0.0000 0.6635
vn 0.7357 0.1819 0.6524
vn -0.7357 0.1819 0.6524
vn 0.7071 -0.0000 -0.7071
vn -0.7071 -0.0000 -0.7071
vn 0.7127 0.1858 -0.6764
vn -0.7127 0.1858 -0.6764
vn 0.7482 -0.0000 -0.6635
vn -0.7482 -0.0000 -0.6635
vn 0.7357 0.1819 -0.6524
vn -0.7357 0.1819 -0.6524
vn -0.2792 -0.7070 0.6497
vn -0.9232 0.0116 -0.3841
vn -0.2640 0.7071 0.6560
vn -0.0959 -0.7148 0.6927
vn -0.0806 0.7105 0.6991
vn -0.2628 -0.7482 0.6092
vn -0.2468 0.7482 0.6159
vn -0.0905 -0.7378 0.6689
vn -0.0747 0.7336 0.6755
vn 0.2640 -0.7071 -0.6560
vn 0.2792 0.7071 -0.6497
vn 0.4237 -0.7148 -0.5564
vn 0.4390 0.7105 -0.5500
vn 0.2468 -0.7482 -0.6159
vn 0.2628 0.7482 -0.6092
vn 0.4106 -0.7378 -0.5358
vn 0.4264 0.7336 -0.5292
vn -0.0000 1.0000 -0.0000
vt 0.537163 0.470839
vt 0.012916 0.472002
vt 0.552083 0.186387
vt 0.691099 0.624178
vt 0.530213 0.500000
vt 0.537163 0.156098
vt 0.012916 0.118048
vt 0.570453 0.999752
vt 0.359168 0.470839
vt 0.013165 0.186387
vt 0.570453 0.618428
vt 0.530213 0.601843
vt 0.359168 0.156098
vt 0.537163 0.470839
vt 0.551314 0.472002
vt 0.552083 0.186387
vt 0.582474 0.624178
vt 0.537163 0.156098
vt 0.015646 0.500000
vt 0.551314 0.118048
vt 0.050696 0.999752
vt 0.359168 0.470839
vt 0.013165 0.186387
vt 0.050696 0.618428
vt 0.359168 0.156098
vt 0.015646 0.601843
vt 0.552083 0.439707
vt 0.013165 0.439707
vt 0.552083 0.437560
vt 0.013165 0.437560
vt 0.691099 0.819550
vt 0.582474 0.819550
vt 0.691099 0.942600
vt 0.582474 0.942600
vt 0.879005 0.681624
vt 0.771848 0.664601
vt 0.772434 0.898825
vt 0.827795 0.732835
vt 0.741613 0.664676
vt 0.737111 0.663758
vt 0.742197 0.898900
vt 0.741381 0.899779
vt 0.802085 0.664525
vt 0.930215 0.732835
vt 0.798047 0.662655
vt 0.802670 0.898750
vt 0.802318 0.898677
vt 0.772499 0.925056
vt 0.750638 0.925111
vt 0.750299 0.926059
vt 0.794359 0.925001
vt 0.794355 0.925261
vt 0.772582 0.958087
vt 0.881283 0.814950
vt 0.750722 0.958142
vt 0.842573 0.813683
vt 0.750902 0.959343
vt 0.841191 0.812327
vt 0.794443 0.958032
vt 0.919994 0.816218
vt 0.794958 0.958545
vt 0.919249 0.813665
vt 0.876155 0.971501
vt 0.877513 0.970834
vt 0.879005 0.784045
vt 0.767578 0.663207
vt 0.771850 0.899228
vt 0.772327 0.925661
vt 0.772930 0.958945
vt 0.880220 0.812996
vt 0.879005 0.681624
vt 0.771848 0.664601
vt 0.772434 0.898825
vt 0.827795 0.732835
vt 0.741613 0.664676
vt 0.737111 0.663758
vt 0.742197 0.898900
vt 0.741381 0.899779
vt 0.802085 0.664525
vt 0.930215 0.732835
vt 0.798047 0.662655
vt 0.802670 0.898750
vt 0.802318 0.898677
vt 0.772499 0.925056
vt 0.750638 0.925111
vt 0.750299 0.926059
vt 0.794359 0.925001
vt 0.794355 0.925261
vt 0.772582 0.958087
vt 0.881283 0.814950
vt 0.750722 0.958142
vt 0.842573 0.813683
vt 0.750902 0.959343
vt 0.841191 0.812327
vt 0.794443 0.958032
vt 0.919994 0.816218
vt 0.794958 0.958545
vt 0.919249 0.813665
vt 0.876155 0.971501
vt 0.877513 0.970834
vt 0.879005 0.784045
vt 0.767578 0.663207
vt 0.771850 0.899228
vt 0.772327 0.925661
vt 0.772930 0.958945
vt 0.880220 0.812996
vt 0.879005 0.681624
vt 0.771848 0.664601
vt 0.772434 0.898825
vt 0.827795 0.732835
vt 0.741613 0.664676
vt 0.737111 0.663758
vt 0.742197 0.898900
vt 0.741381 0.899779
vt 0.802085 0.664525
vt 0.930215 0.732835
vt 0.798047 0.662655
vt 0.802670 0.898750
vt 0.802318 0.898677
vt 0.772499 0.925056
vt 0.750638 0.925111
vt 0.750299 0.926059
vt 0.794359 0.925001
vt 0.794355 0.925261
vt 0.772582 0.958087
vt 0.881283 0.814950
vt 0.750722 0.958142
vt 0.842573 0.813683
vt 0.750902 0.959343
vt 0.841191 0.812327
vt 0.794443 0.958032
vt 0.919994 0.816218
vt 0.794958 0.958545
vt 0.919249 0.813665
vt 0.876155 0.971501
vt 0.877513 0.970834
vt 0.879005 0.784045
vt 0.767578 0.663207
vt 0.771850 0.899228
vt 0.772327 0.925661
vt 0.772930 0.958945
vt 0.880220 0.812996
vt 0.584402 0.320853
vt 0.582315 0.605855
vt 0.828005 0.322158
vt 0.825917 0.607160
s 0
usemtl Material
f 4/11/1 3/8/1 7/21/1 8/24/1
f 8/25/2 7/22/2 5/14/2 6/18/2
f 6/19/3 2/5/3 4/12/3 8/26/3
f 2/6/4 1/1/4 3/9/4 4/13/4
f 6/20/5 5/15/5 1/2/5 2/7/5
f 3/10/6 1/3/6 9/27/6 10/28/6
f 5/16/7 7/23/7 12/30/7 11/29/7
f 1/4/8 5/17/8 14/32/8 13/31/8
f 13/31/9 14/32/9 16/34/9 15/33/9
f 70/145/43 71/146/43 69/144/43 68/143/43
usemtl Material.003
f 21/43/10 22/46/10 18/37/10 17/36/10
f 17/35/3 19/38/3 30/65/3 21/44/3
f 17/36/11 18/37/11 20/41/11 19/39/11
f 18/37/12 22/46/12 25/51/12 23/48/12
f 20/41/13 18/37/13 23/48/13 24/49/13
f 23/48/14 25/51/14 28/59/14 26/53/14
f 24/49/15 23/48/15 26/53/15 27/55/15
f 26/54/16 28/60/16 29/63/16
f 27/56/17 26/54/17 29/63/17
f 21/45/18 30/66/18 31/67/18 22/47/18
f 30/66/19 19/40/19 20/42/19 31/67/19
f 31/67/20 32/68/20 25/52/20 22/47/20
f 20/42/21 24/50/21 32/68/21 31/67/21
f 32/68/22 33/69/22 28/61/22 25/52/22
f 24/50/23 27/57/23 33/69/23 32/68/23
f 33/70/24 29/64/24 28/62/24
f 27/58/25 29/64/25 33/70/25
f 38/79/10 39/82/10 35/73/10 34/72/10
f 34/71/3 36/74/3 47/101/3 38/80/3
f 34/72/11 35/73/11 37/77/11 36/75/11
f 35/73/12 39/82/12 42/87/12 40/84/12
f 37/77/13 35/73/13 40/84/13 41/85/13
f 40/84/14 42/87/14 45/95/14 43/89/14
f 41/85/15 40/84/15 43/89/15 44/91/15
f 43/90/16 45/96/16 46/99/16
f 44/92/17 43/90/17 46/99/17
f 38/81/18 47/102/18 48/103/18 39/83/18
f 47/102/19 36/76/19 37/78/19 48/103/19
f 48/103/20 49/104/20 42/88/20 39/83/20
f 37/78/21 41/86/21 49/104/21 48/103/21
f 49/104/22 50/105/22 45/97/22 42/88/22
f 41/86/23 44/93/23 50/105/23 49/104/23
f 50/106/24 46/100/24 45/98/24
f 44/94/25 46/100/25 50/106/25
f 55/115/26 56/118/26 52/109/26 51/108/26
f 51/107/27 53/110/27 64/137/27 55/116/27
f 51/108/28 52/109/28 54/113/28 53/111/28
f 52/109/29 56/118/29 59/123/29 57/120/29
f 54/113/30 52/109/30 57/120/30 58/121/30
f 57/120/31 59/123/31 62/131/31 60/125/31
f 58/121/32 57/120/32 60/125/32 61/127/32
f 60/126/33 62/132/33 63/135/33
f 61/128/34 60/126/34 63/135/34
f 55/117/35 64/138/35 65/139/35 56/119/35
f 64/138/36 53/112/36 54/114/36 65/139/36
f 65/139/37 66/140/37 59/124/37 56/119/37
f 54/114/38 58/122/38 66/140/38 65/139/38
f 66/140/39 67/141/39 62/133/39 59/124/39
f 58/122/40 61/129/40 67/141/40 66/140/40
f 67/142/41 63/136/41 62/134/41
f 61/130/42 63/136/42 67/142/42
