# Blender 3.3.1
# www.blender.org
mtllib 50AE_240.mtl
o Cube.001
v -0.540428 0.011794 1.531840
v -0.540428 0.496234 1.531840
v -0.540428 0.011794 0.903729
v -0.540428 0.496234 0.903729
v 0.063703 0.011794 1.531840
v 0.063703 0.496234 1.531840
v 0.063703 0.011794 0.903729
v 0.063703 0.496234 0.903729
v -0.063080 0.011794 1.531840
v -0.063080 0.496234 1.531840
v -0.063080 0.011794 0.903729
v -0.063080 0.496234 0.903729
v 0.388509 0.011794 1.531840
v 0.388509 0.011794 0.903729
v 0.435521 0.082311 1.531840
v 0.435521 0.082311 0.903729
v 0.309872 0.011794 1.629282
v 0.309872 0.496234 1.629282
v 0.307308 0.011794 0.790902
v 0.307308 0.496234 0.790902
v 0.064566 0.011794 1.529233
v 0.064566 0.496234 1.529233
v 0.310735 0.011794 1.626675
v 0.310735 0.496234 1.626675
v 0.063703 0.011794 0.907270
v 0.063703 0.496234 0.907270
v 0.307308 0.011794 0.794443
v 0.307308 0.496234 0.794443
v 0.063010 0.014079 1.531840
v 0.063010 0.014079 0.903729
v 0.387816 0.014079 1.531840
v 0.387816 0.014079 0.903729
v 0.387759 0.012309 1.531840
v 0.387759 0.012309 0.903729
v 0.434770 0.082826 1.531840
v 0.434770 0.082826 0.903729
v -0.540428 0.494711 1.531840
v -0.540428 0.494711 0.903729
v 0.063703 0.494711 1.531840
v 0.063703 0.494711 0.903729
v -0.539565 0.011794 1.529226
v -0.539565 0.496234 1.529226
v 0.064566 0.011794 1.529226
v 0.064566 0.496234 1.529226
v -0.540428 0.011794 0.906953
v -0.540428 0.496234 0.906953
v 0.063703 0.011794 0.906953
v 0.063703 0.496234 0.906953
v -0.061770 0.031430 1.527611
v -0.061770 0.367285 1.527612
v -0.007436 0.031430 1.473277
v -0.007436 0.367285 1.473278
v -0.061770 0.466944 1.500341
v -0.087109 0.466944 1.473278
v -0.036431 0.466944 1.473278
v -0.061770 0.031430 1.418942
v -0.061770 0.367285 1.418943
v -0.061770 0.466944 1.446217
v -0.061770 0.031430 1.396600
v -0.061770 0.367285 1.396602
v -0.007436 0.031430 1.342266
v -0.007436 0.367285 1.342268
v -0.061770 0.466944 1.369331
v -0.087109 0.466944 1.342268
v -0.036431 0.466944 1.342268
v -0.061770 0.031430 1.287932
v -0.061770 0.367285 1.287933
v -0.061770 0.466944 1.315207
v -0.061770 0.031430 1.271949
v -0.061770 0.367285 1.271950
v -0.007436 0.031430 1.217615
v -0.007436 0.367285 1.217616
v -0.061770 0.466944 1.244679
v -0.087109 0.466944 1.217616
v -0.036431 0.466944 1.217616
v -0.061770 0.031430 1.163280
v -0.061770 0.367285 1.163281
v -0.061770 0.466944 1.190555
v -0.061770 0.367285 1.020104
v -0.007436 0.367285 0.965770
v -0.061770 0.466944 0.992833
v -0.087109 0.466944 0.965770
v -0.036431 0.466944 0.965770
v -0.061770 0.367285 0.911435
v -0.061770 0.466944 0.938709
v -0.061770 0.367285 1.147299
v -0.007436 0.367285 1.092965
v -0.061770 0.466944 1.120028
v -0.087109 0.466944 1.092965
v -0.036431 0.466944 1.092965
v -0.061770 0.367285 1.038630
v -0.061770 0.466944 1.065904
v 0.175293 0.031430 1.527611
v 0.175293 0.367285 1.527612
v 0.120959 0.031430 1.473277
v 0.120959 0.367285 1.473278
v 0.229627 0.031430 1.473277
v 0.229627 0.367285 1.473278
v 0.175293 0.466944 1.500341
v 0.149954 0.466944 1.473278
v 0.200632 0.466944 1.473278
v 0.175293 0.031430 1.418942
v 0.175293 0.367285 1.418943
v 0.175293 0.466944 1.446217
v 0.175293 0.031430 1.396600
v 0.175293 0.367285 1.396602
v 0.120959 0.031430 1.342266
v 0.120959 0.367285 1.342268
v 0.229627 0.031430 1.342266
v 0.229627 0.367285 1.342268
v 0.175293 0.466944 1.369331
v 0.149954 0.466944 1.342268
v 0.200632 0.466944 1.342268
v 0.175293 0.031430 1.287932
v 0.175293 0.367285 1.287933
v 0.175293 0.466944 1.315207
v 0.175293 0.031430 1.020103
v 0.175293 0.367285 1.020104
v 0.120959 0.031430 0.965769
v 0.120959 0.367285 0.965770
v 0.229627 0.031430 0.965769
v 0.229627 0.367285 0.965770
v 0.175293 0.466944 0.992833
v 0.149954 0.466944 0.965770
v 0.200632 0.466944 0.965770
v 0.175293 0.031430 0.911434
v 0.175293 0.367285 0.911435
v 0.175293 0.466944 0.938709
v 0.055022 0.031430 1.527611
v 0.055022 0.367285 1.527612
v 0.000688 0.031430 1.473277
v 0.000688 0.367285 1.473278
v 0.109356 0.031430 1.473277
v 0.109356 0.367285 1.473278
v 0.055022 0.466944 1.500341
v 0.029683 0.466944 1.473278
v 0.080361 0.466944 1.473278
v 0.055022 0.031430 1.418942
v 0.055022 0.367285 1.418943
v 0.055022 0.466944 1.446217
v 0.055022 0.367285 1.396602
v 0.000688 0.367285 1.342268
v 0.109356 0.367285 1.342268
v 0.055022 0.466944 1.369331
v 0.029683 0.466944 1.342268
v 0.080361 0.466944 1.342268
v 0.055022 0.367285 1.287933
v 0.055022 0.466944 1.315207
v 0.055022 0.031430 1.271949
v 0.055022 0.367285 1.271950
v 0.000688 0.031430 1.217615
v 0.000688 0.367285 1.217616
v 0.109356 0.367285 1.217616
v 0.055022 0.466944 1.244679
v 0.029683 0.466944 1.217616
v 0.080361 0.466944 1.217616
v 0.055022 0.031430 1.163280
v 0.055022 0.367285 1.163281
v 0.055022 0.466944 1.190555
v 0.055022 0.031430 1.020103
v 0.055022 0.367285 1.020104
v 0.000688 0.031430 0.965769
v 0.000688 0.367285 0.965770
v 0.109356 0.367285 0.965770
v 0.055022 0.466944 0.992833
v 0.029683 0.466944 0.965770
v 0.080361 0.466944 0.965770
v 0.055022 0.031430 0.911434
v 0.055022 0.367285 0.911435
v 0.055022 0.466944 0.938709
v -0.061770 0.031430 1.020103
v -0.061770 0.367285 1.020104
v -0.007436 0.031430 0.965769
v -0.007436 0.367285 0.965770
v -0.061770 0.031430 0.911434
v -0.061770 0.367285 0.911435
v -0.061770 0.031430 1.147298
v -0.061770 0.367285 1.147299
v -0.007436 0.031430 1.092964
v -0.007436 0.367285 1.092965
v -0.061770 0.031430 1.038629
v -0.061770 0.367285 1.038630
v 0.109356 0.031430 1.473277
v 0.109356 0.367285 1.473278
v 0.055022 0.031430 1.418942
v 0.055022 0.367285 1.418943
v 0.055022 0.031430 1.396600
v 0.055022 0.367285 1.396602
v 0.000688 0.031430 1.342266
v 0.000688 0.367285 1.342268
v 0.109356 0.031430 1.342266
v 0.109356 0.367285 1.342268
v 0.055022 0.031430 1.287932
v 0.055022 0.367285 1.287933
v 0.055022 0.031430 1.271949
v 0.055022 0.367285 1.271950
v 0.109356 0.031430 1.217615
v 0.109356 0.367285 1.217616
v 0.055022 0.031430 1.163280
v 0.055022 0.367285 1.163281
v 0.055022 0.031430 1.020103
v 0.055022 0.367285 1.020104
v 0.109356 0.031430 0.965769
v 0.109356 0.367285 0.965770
v 0.055022 0.031430 0.911434
v 0.055022 0.367285 0.911435
v 0.235550 0.018238 1.531530
v 0.235550 0.170491 1.531530
v 0.235550 0.018238 0.906653
v 0.235550 0.170491 0.906653
v 0.116803 0.018238 0.906653
v 0.116803 0.170491 0.906653
v 0.116803 0.018238 1.531530
v 0.116803 0.170491 1.531530
v -0.003522 0.018238 0.906653
v -0.003522 0.170491 1.531530
v -0.003522 0.170491 0.906653
v -0.003522 0.018238 1.531530
v 0.235550 0.018238 1.030102
v 0.235550 0.170491 1.030102
v 0.116803 0.170491 1.030102
v -0.117620 0.018238 1.030102
v -0.117620 0.170491 1.030102
v 0.235550 0.170491 1.162148
v 0.116803 0.170491 1.162148
v -0.117621 0.018238 1.162149
v -0.117620 0.170491 1.162148
v 0.235550 0.018238 1.162149
v 0.235550 0.170491 1.283787
v 0.116803 0.170491 1.283787
v -0.117620 0.018238 1.283787
v -0.117620 0.170491 1.283787
v 0.235550 0.018238 1.283787
v 0.235550 0.170491 1.407658
v 0.116803 0.170491 1.407658
v -0.117620 0.018238 1.407658
v -0.117621 0.170491 1.407658
v 0.235550 0.018238 1.407658
v -0.117618 0.170491 0.906653
v -0.117618 0.018238 0.906653
v -0.117618 0.018238 1.531530
v -0.117618 0.170491 1.407658
v -0.117618 0.170491 1.531530
v -0.117618 0.018238 1.162149
vn -1.0000 -0.0000 -0.0000
vn -0.0000 -0.0000 -1.0000
vn -0.0000 -0.0000 1.0000
vn -0.0000 -1.0000 -0.0000
vn -0.0000 1.0000 -0.0000
vn 1.0000 -0.0000 -0.0000
vn 0.8320 -0.5547 -0.0000
vn -0.3680 -0.0000 0.9298
vn -0.4203 -0.0000 -0.9074
vn 0.8321 -0.5547 -0.0000
vn 0.7071 -0.0000 0.7071
vn 0.7008 0.1958 0.6860
vn 0.7071 -0.0000 -0.7071
vn 0.7008 0.1958 -0.6860
vn -0.7071 -0.0000 0.7071
vn -0.7008 0.1958 0.6860
vn -0.7071 -0.0000 -0.7071
vn -0.7008 0.1958 -0.6860
vt 0.729542 0.425202
vt 1.000078 0.424889
vt 0.738156 0.997505
vt 0.728858 0.653051
vt 0.734962 0.424640
vt 0.001164 0.999819
vt 0.007014 0.424519
vt 0.998619 0.874217
vt 0.001616 1.002118
vt 0.006331 0.652368
vt 0.736179 0.874409
vt 0.734839 1.000412
vt 0.999829 0.870238
vt 0.733720 0.417199
vt 0.722503 0.426292
vt 0.967023 0.301456
vt 0.734713 0.869989
vt 0.001734 0.421374
vt 0.766905 0.300963
vt 0.997264 0.421638
vt -0.002821 0.421812
vt 0.005282 0.424302
vt 0.967023 0.301456
vt 0.734824 0.422411
vt 0.735409 0.421966
vt 0.766905 0.300963
vt 0.436835 0.760152
vt 0.448725 0.760152
vt 0.436835 0.705808
vt 0.448725 0.705808
vt 0.723532 0.210906
vt 0.779203 0.259251
vt 0.006311 0.208915
vt 0.917556 0.254331
vt 0.875216 0.351155
vt 0.930887 0.304847
vt 0.966772 0.403146
vt 0.766655 0.402653
vt 0.966775 0.402086
vt 0.766657 0.401593
vt 0.937490 0.068883
vt 0.737372 0.068390
vt 0.937239 0.170573
vt 0.737122 0.170080
vt 0.967023 0.057808
vt 0.766905 0.057315
vt 0.966775 0.158439
vt 0.766657 0.157946
vt 0.722503 0.182644
vt 0.385519 0.180654
vt 0.723532 0.052166
vt 0.386549 0.050175
vt 0.454443 0.101748
vt 0.768457 0.104232
vt 0.454895 0.044572
vt 0.768910 0.047057
vt 0.524118 0.152001
vt 0.651659 0.152104
vt 0.524217 0.051444
vt 0.651759 0.051547
vt 0.928091 0.018810
vt 0.709121 0.018561
vt 0.927843 0.185440
vt 0.708872 0.185192
vt 0.832986 0.129151
vt 0.591606 0.129327
vt 0.831740 0.016777
vt 0.590360 0.017488
vt 0.269104 0.101649
vt 0.074889 0.098673
vt 0.064025 0.097127
vt 0.268893 0.146093
vt 0.074688 0.146943
vt 0.063715 0.142767
vt 0.015890 0.096141
vt 0.016555 0.076665
vt 0.015746 0.114712
vt 0.269104 0.101649
vt 0.074889 0.098673
vt 0.064025 0.097127
vt 0.015890 0.096141
vt 0.269104 0.101649
vt 0.074889 0.098673
vt 0.064025 0.097127
vt 0.268893 0.146093
vt 0.074688 0.146943
vt 0.063715 0.142767
vt 0.015890 0.096141
vt 0.016555 0.076665
vt 0.015746 0.114712
vt 0.269104 0.101649
vt 0.074889 0.098673
vt 0.064025 0.097127
vt 0.015890 0.096141
vt 0.269104 0.101649
vt 0.074889 0.098673
vt 0.064025 0.097127
vt 0.268893 0.146093
vt 0.074688 0.146943
vt 0.063715 0.142767
vt 0.015890 0.096141
vt 0.016555 0.076665
vt 0.015746 0.114712
vt 0.269104 0.101649
vt 0.074889 0.098673
vt 0.064025 0.097127
vt 0.015890 0.096141
vt 0.064025 0.097127
vt 0.063715 0.142767
vt 0.015890 0.096141
vt 0.016555 0.076665
vt 0.015746 0.114712
vt 0.064025 0.097127
vt 0.015890 0.096141
vt 0.064025 0.097127
vt 0.063715 0.142767
vt 0.015890 0.096141
vt 0.016555 0.076665
vt 0.015746 0.114712
vt 0.064025 0.097127
vt 0.015890 0.096141
vt 0.269104 0.101649
vt 0.074889 0.098673
vt 0.064025 0.097127
vt 0.269305 0.053379
vt 0.075091 0.050403
vt 0.064334 0.051486
vt 0.268893 0.146093
vt 0.074688 0.146943
vt 0.063715 0.142767
vt 0.015890 0.096141
vt 0.016555 0.076665
vt 0.015746 0.114712
vt 0.269104 0.101649
vt 0.074889 0.098673
vt 0.064025 0.097127
vt 0.015890 0.096141
vt 0.269104 0.101649
vt 0.074889 0.098673
vt 0.064025 0.097127
vt 0.269305 0.053379
vt 0.075091 0.050403
vt 0.064334 0.051486
vt 0.268893 0.146093
vt 0.074688 0.146943
vt 0.063715 0.142767
vt 0.015890 0.096141
vt 0.016555 0.076665
vt 0.015746 0.114712
vt 0.269104 0.101649
vt 0.074889 0.098673
vt 0.064025 0.097127
vt 0.015890 0.096141
vt 0.269104 0.101649
vt 0.074889 0.098673
vt 0.064025 0.097127
vt 0.269305 0.053379
vt 0.075091 0.050403
vt 0.064334 0.051486
vt 0.268893 0.146093
vt 0.074688 0.146943
vt 0.063715 0.142767
vt 0.015890 0.096141
vt 0.016555 0.076665
vt 0.015746 0.114712
vt 0.269104 0.101649
vt 0.074889 0.098673
vt 0.064025 0.097127
vt 0.015890 0.096141
vt 0.269104 0.101649
vt 0.074889 0.098673
vt 0.064025 0.097127
vt 0.269305 0.053379
vt 0.075091 0.050403
vt 0.064334 0.051486
vt 0.268893 0.146093
vt 0.074688 0.146943
vt 0.063715 0.142767
vt 0.015890 0.096141
vt 0.016555 0.076665
vt 0.015746 0.114712
vt 0.269104 0.101649
vt 0.074889 0.098673
vt 0.064025 0.097127
vt 0.015890 0.096141
vt 0.064025 0.097127
vt 0.064334 0.051486
vt 0.063715 0.142767
vt 0.015890 0.096141
vt 0.016555 0.076665
vt 0.015746 0.114712
vt 0.064025 0.097127
vt 0.015890 0.096141
vt 0.269104 0.101649
vt 0.074889 0.098673
vt 0.064025 0.097127
vt 0.269305 0.053379
vt 0.075091 0.050403
vt 0.064334 0.051486
vt 0.063715 0.142767
vt 0.015890 0.096141
vt 0.016555 0.076665
vt 0.015746 0.114712
vt 0.269104 0.101649
vt 0.074889 0.098673
vt 0.064025 0.097127
vt 0.015890 0.096141
vt 0.269104 0.101649
vt 0.074889 0.098673
vt 0.064025 0.097127
vt 0.269305 0.053379
vt 0.075091 0.050403
vt 0.064334 0.051486
vt 0.063715 0.142767
vt 0.015890 0.096141
vt 0.016555 0.076665
vt 0.015746 0.114712
vt 0.269104 0.101649
vt 0.074889 0.098673
vt 0.064025 0.097127
vt 0.015890 0.096141
vt 0.269104 0.101649
vt 0.074889 0.098673
vt 0.268893 0.146093
vt 0.074688 0.146943
vt 0.269104 0.101649
vt 0.074889 0.098673
vt 0.269104 0.101649
vt 0.074889 0.098673
vt 0.268893 0.146093
vt 0.074688 0.146943
vt 0.269104 0.101649
vt 0.074889 0.098673
vt 0.268893 0.146093
vt 0.074688 0.146943
vt 0.269104 0.101649
vt 0.074889 0.098673
vt 0.269104 0.101649
vt 0.074889 0.098673
vt 0.269305 0.053379
vt 0.075091 0.050403
vt 0.268893 0.146093
vt 0.074688 0.146943
vt 0.269104 0.101649
vt 0.074889 0.098673
vt 0.269104 0.101649
vt 0.074889 0.098673
vt 0.268893 0.146093
vt 0.074688 0.146943
vt 0.269104 0.101649
vt 0.074889 0.098673
vt 0.269104 0.101649
vt 0.074889 0.098673
vt 0.268893 0.146093
vt 0.074688 0.146943
vt 0.269104 0.101649
vt 0.074889 0.098673
vt 0.480637 0.057737
vt 0.522480 0.168506
vt 0.658172 0.054807
vt 0.480637 0.148304
vt 0.658172 0.145374
vt 0.658172 0.054807
vt 0.745514 0.167482
vt 0.852343 0.057737
vt 0.658172 0.145374
vt 0.852343 0.148304
vt 0.587536 0.054807
vt 0.745319 0.125098
vt 0.852343 0.057737
vt 0.587536 0.145374
vt 0.852343 0.148304
vt 0.587536 0.054807
vt 0.522285 0.126123
vt 0.480637 0.057737
vt 0.587536 0.145374
vt 0.480637 0.148304
vt 0.745122 0.082151
vt 0.515961 0.054807
vt 0.852343 0.057737
vt 0.480637 0.148304
vt 0.515961 0.145374
vt 0.515961 0.145374
vt 0.852343 0.148304
vt 0.522088 0.083176
vt 0.480637 0.057737
vt 0.515961 0.054807
vt 0.701452 0.167684
vt 0.778910 0.057737
vt 0.658172 0.054807
vt 0.778910 0.148304
vt 0.658172 0.145374
vt 0.778910 0.148304
vt 0.448090 0.054807
vt 0.700873 0.041629
vt 0.778910 0.057737
vt 0.273477 0.550000
vt 0.448090 0.145374
vt 0.778910 0.148304
vt 0.658172 0.145374
vt 0.700363 0.148304
vt 0.700363 0.148304
vt 0.448090 0.054807
vt 0.653742 0.041845
vt 0.273477 0.601515
vt 0.448090 0.145374
vt 0.700363 0.148304
vt 0.654321 0.167901
vt 0.658172 0.054807
vt 0.700363 0.057737
vt 0.658172 0.145374
vt 0.628006 0.148304
vt 0.628006 0.148304
vt 0.448090 0.054807
vt 0.610326 0.042045
vt 0.628006 0.057737
vt 0.273477 0.654028
vt 0.448090 0.145374
vt 0.628006 0.148304
vt 0.610905 0.168100
vt 0.658172 0.054807
vt 0.628006 0.057737
vt 0.658172 0.145374
vt 0.554322 0.148304
vt 0.554322 0.148304
vt 0.448090 0.054807
vt 0.566113 0.042248
vt 0.554322 0.057737
vt 0.448090 0.145374
vt 0.658172 0.054807
vt 0.566693 0.168303
vt 0.554322 0.057737
vt 0.448091 0.145374
vt 0.852343 0.148304
vt 0.744935 0.041427
vt 0.448091 0.054807
vt 0.852343 0.057737
vt 0.521900 0.042452
vt 0.480637 0.057737
vt 0.448091 0.054807
vt 0.554322 0.148304
vt 0.480637 0.148304
vt 0.448091 0.145374
vt 0.700363 0.057737
vt 0.273477 0.601515
s 0
usemtl Material.046
f 1/1/1 2/4/1 4/10/1 3/7/1
f 3/8/2 4/11/2 8/24/2 7/20/2
f 5/13/3 6/17/3 2/5/3 1/2/3
f 3/9/4 7/21/4 5/14/4 1/3/4
f 8/25/5 4/12/5 2/6/5 6/18/5
f 11/29/6 12/30/6 10/28/6 9/27/6
f 5/15/4 7/22/4 14/33/4 13/31/4
f 13/32/7 14/34/7 16/36/7 15/35/7
f 6/19/8 5/16/8 17/37/8 18/38/8
f 7/23/9 8/26/9 20/40/9 19/39/9
f 22/42/8 21/41/8 23/43/8 24/44/8
f 25/45/9 26/46/9 28/48/9 27/47/9
f 29/49/4 30/50/4 32/52/4 31/51/4
f 33/53/10 34/54/10 36/56/10 35/55/10
f 40/60/5 38/58/5 37/57/5 39/59/5
f 43/63/3 44/64/3 42/62/3 41/61/3
f 45/65/2 46/66/2 48/68/2 47/67/2
usemtl Material.047
f 51/72/11 52/73/11 50/70/11 49/69/11
f 50/71/12 52/74/12 55/77/12 53/75/12
f 51/72/13 56/78/13 57/79/13 52/73/13
f 54/76/5 53/75/5 55/77/5 58/81/5
f 57/80/14 58/81/14 55/77/14 52/74/14
f 61/85/11 62/86/11 60/83/11 59/82/11
f 60/84/12 62/87/12 65/90/12 63/88/12
f 61/85/13 66/91/13 67/92/13 62/86/13
f 64/89/5 63/88/5 65/90/5 68/94/5
f 67/93/14 68/94/14 65/90/14 62/87/14
f 71/98/11 72/99/11 70/96/11 69/95/11
f 70/97/12 72/100/12 75/103/12 73/101/12
f 71/98/13 76/104/13 77/105/13 72/99/13
f 74/102/5 73/101/5 75/103/5 78/107/5
f 77/106/14 78/107/14 75/103/14 72/100/14
f 79/108/12 80/109/12 83/112/12 81/110/12
f 82/111/5 81/110/5 83/112/5 85/114/5
f 84/113/14 85/114/14 83/112/14 80/109/14
f 86/115/12 87/116/12 90/119/12 88/117/12
f 89/118/5 88/117/5 90/119/5 92/121/5
f 91/120/14 92/121/14 90/119/14 87/116/14
f 97/128/11 98/129/11 94/123/11 93/122/11
f 93/122/15 94/123/15 96/126/15 95/125/15
f 94/124/12 98/130/12 101/133/12 99/131/12
f 96/127/16 94/124/16 99/131/16 100/132/16
f 97/128/13 102/134/13 103/135/13 98/129/13
f 102/134/17 95/125/17 96/126/17 103/135/17
f 100/132/5 99/131/5 101/133/5 104/137/5
f 103/136/14 104/137/14 101/133/14 98/130/14
f 96/127/18 100/132/18 104/137/18 103/136/18
f 109/144/11 110/145/11 106/139/11 105/138/11
f 105/138/15 106/139/15 108/142/15 107/141/15
f 106/140/12 110/146/12 113/149/12 111/147/12
f 108/143/16 106/140/16 111/147/16 112/148/16
f 109/144/13 114/150/13 115/151/13 110/145/13
f 114/150/17 107/141/17 108/142/17 115/151/17
f 112/148/5 111/147/5 113/149/5 116/153/5
f 115/152/14 116/153/14 113/149/14 110/146/14
f 108/143/18 112/148/18 116/153/18 115/152/18
f 121/160/11 122/161/11 118/155/11 117/154/11
f 117/154/15 118/155/15 120/158/15 119/157/15
f 118/156/12 122/162/12 125/165/12 123/163/12
f 120/159/16 118/156/16 123/163/16 124/164/16
f 121/160/13 126/166/13 127/167/13 122/161/13
f 126/166/17 119/157/17 120/158/17 127/167/17
f 124/164/5 123/163/5 125/165/5 128/169/5
f 127/168/14 128/169/14 125/165/14 122/162/14
f 120/159/18 124/164/18 128/169/18 127/168/18
f 133/176/11 134/177/11 130/171/11 129/170/11
f 129/170/15 130/171/15 132/174/15 131/173/15
f 130/172/12 134/178/12 137/181/12 135/179/12
f 132/175/16 130/172/16 135/179/16 136/180/16
f 138/182/17 131/173/17 132/174/17 139/183/17
f 136/180/5 135/179/5 137/181/5 140/185/5
f 139/184/14 140/185/14 137/181/14 134/178/14
f 132/175/18 136/180/18 140/185/18 139/184/18
f 141/186/12 143/188/12 146/191/12 144/189/12
f 142/187/16 141/186/16 144/189/16 145/190/16
f 145/190/5 144/189/5 146/191/5 148/193/5
f 147/192/14 148/193/14 146/191/14 143/188/14
f 142/187/18 145/190/18 148/193/18 147/192/18
f 149/194/15 150/195/15 152/198/15 151/197/15
f 150/196/12 153/200/12 156/203/12 154/201/12
f 152/199/16 150/196/16 154/201/16 155/202/16
f 157/204/17 151/197/17 152/198/17 158/205/17
f 155/202/5 154/201/5 156/203/5 159/207/5
f 158/206/14 159/207/14 156/203/14 153/200/14
f 152/199/18 155/202/18 159/207/18 158/206/18
f 160/208/15 161/209/15 163/212/15 162/211/15
f 161/210/12 164/214/12 167/217/12 165/215/12
f 163/213/16 161/210/16 165/215/16 166/216/16
f 168/218/17 162/211/17 163/212/17 169/219/17
f 166/216/5 165/215/5 167/217/5 170/221/5
f 169/220/14 170/221/14 167/217/14 164/214/14
f 163/213/18 166/216/18 170/221/18 169/220/18
f 173/224/11 174/225/11 172/223/11 171/222/11
f 173/224/13 175/226/13 176/227/13 174/225/13
f 179/230/11 180/231/11 178/229/11 177/228/11
f 179/230/13 181/232/13 182/233/13 180/231/13
f 183/234/13 185/236/13 186/237/13 184/235/13
f 191/242/11 192/243/11 188/239/11 187/238/11
f 187/238/15 188/239/15 190/241/15 189/240/15
f 191/242/13 193/244/13 194/245/13 192/243/13
f 193/244/17 189/240/17 190/241/17 194/245/17
f 197/248/11 198/249/11 196/247/11 195/246/11
f 197/248/13 199/250/13 200/251/13 198/249/13
f 203/254/11 204/255/11 202/253/11 201/252/11
f 203/254/13 205/256/13 206/257/13 204/255/13
f 211/268/2 212/271/2 210/266/2 209/263/2
f 238/332/6 234/324/6 208/261/6 207/258/6
f 238/330/3 234/323/3 237/329/3 236/326/3
f 219/288/4 228/308/4 233/320/4 238/331/4 207/259/4 213/274/4 211/269/4 209/264/4
f 207/260/3 208/262/3 214/276/3 213/273/3
f 215/279/2 217/283/2 212/271/2 211/268/2
f 213/273/3 214/276/3 216/282/3 218/287/3
f 209/265/6 210/267/6 220/291/6 219/289/6
f 219/289/6 220/291/6 224/301/6 228/310/6
f 220/292/2 219/290/2 222/294/2 223/298/2
f 224/300/2 228/309/2 226/303/2 227/306/2
f 228/310/6 224/301/6 229/312/6 233/322/6
f 229/311/2 233/321/2 231/314/2 232/318/2
f 218/285/4 241/338/4 236/327/4 231/315/4 226/304/4 222/295/4 240/335/4 215/278/4 211/269/4 213/274/4
f 233/322/6 229/312/6 234/324/6 238/332/6
f 217/283/2 215/279/2 240/336/2 239/333/2
f 230/313/6 235/325/6 214/277/6 213/275/6 211/270/6 212/272/6 221/293/6 225/302/6
f 223/299/1 239/334/1 240/337/1 222/296/1 244/344/1 231/316/1 236/328/1 241/339/1 243/342/1 242/341/1 232/319/1 227/307/1
f 215/280/6 217/284/6 216/281/6 218/286/6
f 226/305/5 231/317/5 244/345/5
f 218/287/3 216/282/3 243/343/3 241/340/3
f 222/297/5 226/305/5 244/345/5
