# Blender 3.3.1
# www.blender.org
mtllib Bandage.mtl
o Cube
v 0.361217 1.276810 -0.361217
v 0.361217 0.063568 -0.361217
v 0.361217 1.276810 0.361217
v 0.361217 0.063568 0.361217
v 0.000000 1.276810 0.000000
v 0.000000 0.063568 0.000000
v 0.512223 0.063568 0.000000
v 0.512223 1.276810 0.000000
v 0.000000 0.063568 -0.511161
v 0.000000 1.276810 0.514381
v 0.000000 0.063568 0.514381
v 0.000000 1.276810 -0.511161
v -0.361217 1.276810 -0.361217
v -0.361217 0.063568 -0.361217
v -0.361217 1.276810 0.361217
v -0.361217 0.063568 0.361217
v -0.512223 0.063568 0.000000
v -0.512223 1.276810 0.000000
v 0.516781 0.063568 0.487666
v 0.516781 1.276810 0.487666
v 0.220535 0.063568 0.770239
v 0.220535 1.276810 0.770239
v 0.204258 0.063568 0.888737
v 0.130809 1.276810 0.888737
vn -0.0000 -1.0000 -0.0000
vn -0.0000 1.0000 -0.0000
vn 0.9226 -0.0000 0.3857
vn 0.3834 -0.0000 -0.9236
vn 0.9226 -0.0000 -0.3857
vn 0.3904 -0.0000 0.9207
vn -0.9226 -0.0000 0.3857
vn -0.3834 -0.0000 -0.9236
vn -0.9226 -0.0000 -0.3857
vn -0.3904 -0.0000 0.9207
vn 1.0000 -0.0000 -0.0093
vn 0.6902 -0.0000 0.7236
vn 0.9125 0.0276 0.4081
vt 0.897676 0.772927
vt 0.105111 0.502318
vt 0.897676 0.772927
vt 0.105799 0.933566
vt 0.250038 0.501631
vt 0.897676 0.233275
vt 0.897676 0.233275
vt 0.250726 0.932879
vt 0.799226 0.496851
vt 0.799226 0.496851
vt 0.963067 0.503101
vt 0.178262 0.933223
vt 0.277795 0.351028
vt 0.177575 0.501974
vt 0.963067 0.503101
vt 0.277795 0.715057
vt 0.799226 0.878684
vt 0.033335 0.933910
vt 0.322502 0.501287
vt 0.799226 0.112612
vt 0.799226 0.112612
vt 0.323189 0.932535
vt 0.799226 0.878684
vt 0.032648 0.502662
vt 0.670583 0.760427
vt 0.105111 0.502318
vt 0.670583 0.760427
vt 0.105799 0.933566
vt 0.250038 0.501631
vt 0.670583 0.220775
vt 0.670583 0.220775
vt 0.250726 0.932879
vt 0.605191 0.490601
vt 0.178262 0.933223
vt 0.177575 0.501974
vt 0.605191 0.490601
vt 0.192971 0.351028
vt 0.222918 0.502352
vt 0.192971 0.715057
vt 0.222918 0.887827
vt 0.170871 0.502352
vt 0.170871 0.887827
vt 0.149045 0.502352
vt 0.149045 0.887827
s 0
usemtl Material
f 9/17/1 2/3/1 7/11/1 6/10/1
f 1/1/2 12/23/2 5/9/2 8/15/2
f 6/10/1 7/11/1 4/7/1 11/21/1
f 7/12/3 8/14/3 3/5/3 4/8/3
f 9/18/4 12/24/4 1/2/4 2/4/4
f 2/4/5 1/2/5 8/14/5 7/12/5
f 4/8/6 3/5/6 10/19/6 11/22/6
f 8/15/2 5/9/2 10/20/2 3/6/2
f 9/17/1 6/10/1 17/33/1 14/27/1
f 13/25/2 18/36/2 5/9/2 12/23/2
f 6/10/1 11/21/1 16/31/1 17/33/1
f 17/34/7 16/32/7 15/29/7 18/35/7
f 9/18/8 14/28/8 13/26/8 12/24/8
f 14/28/9 17/34/9 18/35/9 13/26/9
f 16/32/10 11/22/10 10/19/10 15/29/10
f 18/36/2 15/30/2 10/20/2 5/9/2
f 7/13/11 8/16/11 20/39/11 19/37/11
f 19/38/12 20/40/12 22/42/12 21/41/12
f 21/41/13 22/42/13 24/44/13 23/43/13
