# Blender 3.3.1
# www.blender.org
mtllib Green_Powder.mtl
o Plane
v -1.000000 0.271989 1.000000
v 0.925175 0.271723 1.057430
v -1.000000 0.224246 -1.000000
v 1.000000 0.260227 -1.000000
v -1.000000 0.439961 0.000000
v 1.000000 0.434382 0.000000
v 0.000000 0.380539 1.000000
v 0.000696 0.444479 -1.000000
v 0.000000 0.247893 0.000000
v 0.699961 0.379896 0.000573
v -0.740829 0.395252 -0.002809
v -0.000254 0.330840 0.626816
v 0.000000 0.374230 -0.641188
v -0.012695 0.528005 -0.002809
v -0.431697 0.374128 0.326871
v 0.376430 0.372992 0.407054
v 0.388610 0.394595 -0.372452
v -0.423067 0.400563 -0.338493
vn -0.1800 0.9652 0.1896
vn -0.1818 0.9748 -0.1293
vn -0.1064 0.9806 0.1647
vn 0.1853 0.9650 0.1855
vn -0.2103 0.9557 -0.2061
vn 0.1787 0.9693 -0.1688
vn 0.1056 0.9817 0.1585
vn 0.1872 0.9745 -0.1240
vn -0.1128 0.9476 0.2990
vn 0.1773 -0.9723 0.1524
vn 0.1748 -0.9585 -0.2253
vn 0.1079 -0.9660 0.2348
vn -0.1089 -0.9669 0.2307
vn 0.1995 0.9641 0.1752
vn 0.2023 0.9706 -0.1306
vn 0.0667 0.9526 0.2970
vt 0.018891 0.058388
vt 0.527718 0.028700
vt 0.003561 0.992401
vt 0.526421 0.992401
vt 0.003561 0.475459
vt 0.526421 0.475459
vt 0.269172 0.043023
vt 0.253972 0.977037
vt 0.253841 0.460094
vt 0.939383 0.505432
vt 0.054553 0.475459
vt 0.573912 0.507796
vt 0.761766 0.067617
vt 0.761831 0.954095
vt 0.758610 0.507796
vt 0.652326 0.277313
vt 0.857316 0.221256
vt 0.860406 0.766219
vt 0.667871 0.730946
s 0
usemtl Material.001
f 9/9/1 6/6/1 8/8/1
f 7/7/2 6/6/2 9/9/2
f 1/1/3 7/7/3 5/5/3
f 5/5/4 11/11/4 9/9/4 8/8/4
f 8/8/5 3/3/5 5/5/5
f 8/8/6 6/6/6 4/4/6
f 6/6/7 7/7/7 2/2/7
f 5/5/8 7/7/8 9/9/8 11/11/8
f 14/15/9 15/16/9 12/13/9
f 11/12/10 18/19/10 14/15/10
f 14/15/11 15/16/11 11/12/11
f 14/15/12 18/19/12 13/14/12
f 17/18/13 14/15/13 13/14/13
f 10/10/14 14/15/14 16/17/14
f 14/15/15 10/10/15 17/18/15
f 14/15/16 12/13/16 16/17/16
