# Blender 3.3.1
# www.blender.org
mtllib 12g_Green_240.mtl
o 12g_box_Green
v -0.410154 1.377467 -3.000304
v -0.410159 -0.001892 -3.000304
v 0.385315 1.377467 -3.004240
v 0.385939 -0.001892 -3.004368
v -0.404299 1.377006 -1.699935
v -0.404368 -0.001892 -1.699921
v 0.392304 1.377010 -1.703863
v 0.392338 -0.001892 -1.703842
v -0.402695 1.700463 -1.360016
v 0.394011 1.700462 -1.363937
v -0.412520 1.722389 -3.356796
v 0.384186 1.722389 -3.360716
v -0.773210 2.173928 -2.998664
v -0.766810 2.173928 -1.698138
v -0.541046 2.408891 -2.999807
v -0.534647 2.408891 -1.699280
v -0.772149 2.173928 -2.998670
v -0.765750 2.173928 -1.698143
v -0.539981 2.408891 -2.999812
v -0.533582 2.408891 -1.699285
v -0.400682 1.377006 -1.699952
v -0.406620 1.377467 -3.000322
v -0.764948 2.173928 -1.698147
v -0.771348 2.173928 -2.998674
v 0.384190 1.723044 -3.359807
v -0.412516 1.723044 -3.355886
v 0.385353 1.378118 -2.996422
v -0.410115 1.378122 -2.992430
v -0.404326 1.378101 -1.705456
v 0.392277 1.378105 -1.709397
v -0.402696 1.701652 -1.360314
v 0.394010 1.701652 -1.364234
v -0.406594 1.377467 -3.000322
v -0.406590 -0.001892 -3.000330
v -0.400730 1.377006 -1.699952
v -0.400665 -0.001892 -1.699939
v -0.410116 1.377467 -2.992464
v -0.410120 -0.001892 -2.992464
v 0.385353 1.377467 -2.996400
v 0.385977 -0.001892 -2.996528
v -0.404326 1.377006 -1.705460
v -0.404395 -0.001892 -1.705447
v 0.392277 1.377010 -1.709389
v 0.392311 -0.001892 -1.709367
v 0.383164 1.377467 -3.004230
v 0.383792 -0.001892 -3.004358
v 0.390153 1.377010 -1.703852
v 0.390192 -0.001892 -1.703831
v 0.644359 0.778449 -2.786703
v 0.643220 0.000190 -2.786094
v 0.540348 0.777513 -2.681667
v 0.539213 -0.000746 -2.681058
v 0.539323 0.778518 -2.890715
v 0.538188 0.000259 -2.890106
v 0.435312 0.777587 -2.785683
v 0.434177 -0.000677 -2.785074
v 1.006957 -0.003815 -2.792095
v 0.369339 -0.004345 -3.238343
v 0.946009 0.100708 -2.707176
v 0.308392 0.100174 -3.153420
v 1.066832 0.100708 -2.877772
v 0.429214 0.100174 -3.324020
v 1.005884 0.205231 -2.792853
v 0.368271 0.204701 -3.239101
v -0.400967 1.045946 -2.879920
v 0.376211 1.050820 -2.882452
v -0.400654 0.942362 -2.983640
v 0.376524 0.947237 -2.986171
v -0.399979 0.942362 -2.776340
v 0.377199 0.947237 -2.778867
v 0.382449 0.947237 -1.712125
v -0.394730 0.942362 -1.709594
v -0.395718 1.045946 -1.813178
v 0.381460 1.050820 -1.815705
v -0.395404 0.942362 -1.916759
v 0.381774 0.947237 -1.919291
v -0.396753 1.045946 -2.023609
v 0.380425 1.050820 -2.026140
v -0.396440 0.942362 -2.127195
v 0.380739 0.947237 -2.129726
v -0.395765 0.942362 -1.920029
v 0.381413 0.947237 -1.922560
v -0.396078 0.877631 -2.066832
v 0.381100 0.882510 -2.069363
v -0.397813 0.904967 -2.238902
v 0.379366 0.909842 -2.241434
v -0.397499 0.801383 -2.342489
v 0.379679 0.806258 -2.345015
v -0.396825 0.801383 -2.135323
v 0.380354 0.806258 -2.137849
v -0.397613 0.877631 -2.413797
v 0.379565 0.882510 -2.416328
v -0.398864 1.045946 -2.452575
v 0.378314 1.050820 -2.455106
v -0.398551 0.942362 -2.556161
v 0.378628 0.947237 -2.558688
v -0.397876 0.942362 -2.348995
v 0.379302 0.947237 -2.351522
v -0.399916 1.045946 -2.666248
v 0.377263 1.050820 -2.668779
v -0.399602 0.942362 -2.769834
v 0.377576 0.947237 -2.772361
v -0.398928 0.942362 -2.562668
v 0.378251 0.947237 -2.565195
v 0.383185 1.377467 -3.004247
v 0.390174 1.377010 -1.703870
vn 1.0000 0.0002 -0.0051
vn 0.0049 -0.0000 1.0000
vn -0.0000 -1.0000 -0.0000
vn -0.0050 -0.0000 -1.0000
vn -1.0000 -0.0000 0.0045
vn 0.0034 -0.7244 0.6893
vn -0.0034 -0.7187 -0.6953
vn -0.9101 -0.4144 0.0042
vn -0.7113 0.7029 0.0035
vn -0.9093 -0.4160 0.0042
vn -0.0034 -0.7253 -0.6884
vn 0.0034 -0.7296 0.6839
vn -0.0000 1.0000 0.0004
vn -0.7036 0.0016 0.7105
vn -0.0041 1.0000 0.0048
vn 0.0041 -1.0000 -0.0048
vn -0.7106 0.0005 -0.7036
vn 0.7036 -0.0016 -0.7106
vn 0.7106 -0.0005 0.7036
vn -0.4058 0.7071 0.5790
vn 0.8160 0.0063 0.5780
vn -0.8161 -0.0063 -0.5779
vn 0.4051 0.7071 -0.5796
vn 0.4058 -0.7071 -0.5790
vn -0.4051 -0.7071 0.5796
vn -0.0067 0.7075 -0.7066
vn -0.0021 0.7071 0.7071
vn 0.0019 -0.6820 -0.7313
vn -0.0067 0.7071 -0.7071
vn 0.0019 -0.6831 -0.7304
vn 0.0066 -0.6683 0.7439
vn 0.0067 -0.7075 0.7067
vn -0.0063 1.0000 -0.0000
vt 0.881085 0.747334
vt 0.001586 0.754497
vt 0.779240 0.825556
vt 0.000889 0.754201
vt 0.556247 0.084559
vt 0.881085 0.278505
vt 0.001586 0.276060
vt 0.559725 0.747334
vt 0.620906 0.825556
vt 0.561516 0.754497
vt 0.561516 0.276060
vt 0.556247 0.274560
vt 0.559725 0.278505
vt 0.560957 0.999542
vt 0.559997 0.754497
vt 0.779240 0.825556
vt 0.559629 0.754201
vt 0.001461 1.000485
vt 0.001666 0.084559
vt 0.559997 0.276060
vt 0.558237 0.756309
vt 0.620906 0.825556
vt 0.001467 0.754497
vt 0.001467 0.276060
vt -0.001259 0.757252
vt 0.001666 0.274560
vt 0.779240 0.889838
vt 0.620906 0.889838
vt 0.779240 0.894196
vt 0.620906 0.894196
vt 0.000889 0.999987
vt 0.843431 0.834020
vt 0.559629 0.999987
vt 0.584971 0.834020
vt 0.843431 0.880715
vt 0.584971 0.880715
vt 0.860229 0.223696
vt 0.570973 0.223696
vt 0.860229 0.270392
vt 0.570973 0.270392
vt 0.864036 0.019600
vt 0.574481 0.019600
vt 0.864036 0.265386
vt 0.574481 0.265386
vt 0.643547 0.189785
vt 0.801882 0.189785
vt 0.643547 0.121144
vt 0.801882 0.121144
vt 0.796850 0.126175
vt 0.638516 0.126175
vt 0.796850 0.190458
vt 0.638516 0.190458
vt 0.614501 0.233160
vt 0.614501 0.067828
vt 0.807471 0.233160
vt 0.807471 0.067828
vt 0.837662 0.256307
vt 0.837662 0.012290
vt 0.603148 0.256307
vt 0.603148 0.012290
vt 0.596839 0.248495
vt 0.600974 0.038168
vt 0.856850 0.249425
vt 0.860985 0.039097
vt 0.865827 0.253817
vt 0.865827 0.011950
vt 0.582702 0.253817
vt 0.582702 0.011950
vt 0.419508 0.027121
vt 0.379981 0.043733
vt 0.278224 0.006309
vt 0.513321 0.045218
vt 0.463231 0.047256
vt 0.380011 0.080283
vt 0.313091 0.042591
vt 0.513351 0.081769
vt 0.380410 0.007186
vt 0.377908 0.049734
vt 0.513750 0.008672
vt 0.242412 0.042591
vt 0.380440 0.043735
vt 0.419516 0.027503
vt 0.513780 0.045221
vt 0.278222 0.078874
vt 0.417511 0.027121
vt 0.379981 0.043733
vt 0.278224 0.006309
vt 0.513321 0.045218
vt 0.461234 0.047256
vt 0.380011 0.080283
vt 0.313091 0.042591
vt 0.513351 0.081769
vt 0.380410 0.007186
vt 0.375911 0.049734
vt 0.513750 0.008672
vt 0.242412 0.042591
vt 0.380440 0.043735
vt 0.417519 0.027503
vt 0.513780 0.045221
vt 0.278222 0.078874
vt 0.514723 0.044543
vt 0.515772 0.048224
vt 0.377889 0.044599
vt 0.376547 0.049095
vt 0.514722 0.005095
vt 0.510205 0.009027
vt 0.378695 0.005270
vt 0.391358 0.008789
vt 0.515518 0.083087
vt 0.376187 0.081880
vt 0.376187 0.081880
vt 0.391294 0.058655
vt 0.515518 0.083087
vt 0.510140 0.058893
vt 0.515772 0.048224
vt 0.514723 0.044543
vt 0.376547 0.049095
vt 0.377889 0.044599
vt 0.514722 0.005095
vt 0.378695 0.005270
vt 0.515772 0.048224
vt 0.514723 0.044543
vt 0.376547 0.049095
vt 0.377889 0.044599
vt 0.513450 0.052868
vt 0.514722 0.005095
vt 0.383042 0.053069
vt 0.378695 0.005270
vt 0.515518 0.083087
vt 0.510288 0.008709
vt 0.376187 0.081880
vt 0.391442 0.008471
vt 0.513409 0.073597
vt 0.383001 0.073798
vt 0.515772 0.048224
vt 0.514723 0.044543
vt 0.376547 0.049095
vt 0.377889 0.044599
vt 0.514722 0.005095
vt 0.513463 0.038899
vt 0.378695 0.005270
vt 0.383055 0.039100
vt 0.515518 0.083087
vt 0.513571 0.050077
vt 0.376187 0.081880
vt 0.383164 0.050278
vt 0.513403 0.014410
vt 0.382996 0.014612
vt 0.515772 0.048224
vt 0.514723 0.044543
vt 0.376547 0.049095
vt 0.377889 0.044599
vt 0.514722 0.005095
vt 0.510050 0.061589
vt 0.378695 0.005270
vt 0.391203 0.061351
vt 0.515518 0.083087
vt 0.513584 0.036664
vt 0.376187 0.081880
vt 0.383176 0.036865
vt 0.515772 0.048224
vt 0.514723 0.044543
vt 0.376547 0.049095
vt 0.377889 0.044599
vt 0.514722 0.005095
vt 0.378695 0.005270
vt 0.515518 0.083087
vt 0.376187 0.081880
vt 0.561516 0.754497
vt 0.001467 0.754497
s 0
usemtl Material.038
f 4/11/1 3/10/1 7/23/1 8/24/1
f 8/25/2 7/21/2 5/14/2 6/18/2
f 6/19/3 2/5/3 4/12/3 8/26/3
f 2/6/4 1/1/4 3/8/4 4/13/4
f 6/20/5 5/15/5 1/2/5 2/7/5
f 5/16/6 7/22/6 10/28/6 9/27/6
f 3/9/7 1/3/7 11/29/7 12/30/7
f 1/4/8 5/17/8 14/33/8 13/31/8
f 13/32/9 14/34/9 16/36/9 15/35/9
f 17/37/9 18/38/9 20/40/9 19/39/9
f 22/42/10 21/41/10 23/43/10 24/44/10
f 27/47/11 28/48/11 26/46/11 25/45/11
f 29/49/12 30/50/12 32/52/12 31/51/12
f 36/56/5 35/55/5 33/53/5 34/54/5
f 38/58/4 37/57/4 39/59/4 40/60/4
f 44/64/2 43/63/2 41/61/2 42/62/2
f 46/66/1 45/65/1 47/67/1 48/68/1
f 7/23/13 3/10/13 105/169/13 106/170/13
usemtl Material.039
f 55/81/14 56/83/14 52/76/14 51/74/14
f 51/73/15 49/69/15 53/78/15
f 54/80/16 50/71/16 52/75/16
f 53/77/17 54/79/17 56/83/17 55/81/17
f 53/77/18 49/70/18 50/72/18 54/79/18
f 51/73/15 53/78/15 55/82/15
f 54/80/16 52/75/16 56/84/16
f 49/70/19 51/74/19 52/76/19 50/72/19
f 63/97/20 64/99/20 60/92/20 59/90/20
f 59/89/21 57/85/21 61/94/21
f 62/96/22 58/87/22 60/91/22
f 61/93/23 62/95/23 64/99/23 63/97/23
f 61/93/24 57/86/24 58/88/24 62/95/24
f 59/89/21 61/94/21 63/98/21
f 62/96/22 60/91/22 64/100/22
f 57/86/25 59/90/25 60/92/25 58/88/25
usemtl Material.040
f 65/101/26 66/103/26 68/107/26 67/105/26
f 97/157/27 98/159/27 94/151/27 93/149/27
f 81/129/27 82/131/27 78/123/27 77/121/27
f 72/113/27 71/111/27 74/117/27 73/115/27
f 83/133/28 79/125/28 80/127/28 84/134/28
f 89/143/27 90/145/27 86/137/27 85/135/27
f 85/136/29 86/138/29 88/141/29 87/139/29
f 88/142/30 87/140/30 91/147/30 92/148/30
f 90/146/31 84/134/31 83/133/31 89/144/31
f 97/158/32 91/147/32 92/148/32 98/160/32
f 93/150/29 94/152/29 96/155/29 95/153/29
f 103/167/27 104/168/27 100/163/27 99/161/27
f 69/109/27 70/110/27 66/104/27 65/102/27
f 99/162/29 100/164/29 102/166/29 101/165/29
f 82/132/33 81/130/33 72/114/33 71/112/33
f 95/154/33 96/156/33 68/108/33 67/106/33
f 73/116/29 74/118/29 76/120/29 75/119/29
f 77/122/29 78/124/29 80/128/29 79/126/29
