# Blender 3.3.1
# www.blender.org
mtllib 12g_red_240.mtl
o 12g_box_Green
v -0.017773 0.319581 -0.095247
v -0.017773 -0.000439 -0.095248
v -0.017768 0.319581 0.089309
v -0.017739 -0.000439 0.089454
v -0.319470 0.319474 -0.095373
v -0.319473 -0.000439 -0.095389
v -0.319468 0.319475 0.089446
v -0.319473 -0.000439 0.089454
v -0.398334 0.394518 -0.095389
v -0.398334 0.394518 0.089454
v 0.064937 0.399605 -0.095389
v 0.064937 0.399605 0.089454
v -0.017739 0.504365 -0.179479
v -0.319473 0.504365 -0.179479
v -0.017739 0.558878 -0.125615
v -0.319473 0.558878 -0.125615
v -0.017739 0.504365 -0.179233
v -0.319473 0.504365 -0.179233
v -0.017739 0.558878 -0.125368
v -0.319473 0.558878 -0.125368
v -0.319470 0.319474 -0.094534
v -0.017773 0.319581 -0.094427
v -0.319473 0.504365 -0.179047
v -0.017739 0.504365 -0.179047
v 0.064726 0.399757 0.089454
v 0.064726 0.399757 -0.095389
v -0.019582 0.319732 0.089309
v -0.019600 0.319733 -0.095247
v -0.318189 0.319728 -0.095373
v -0.318184 0.319729 0.089446
v -0.398265 0.394794 -0.095389
v -0.398265 0.394794 0.089454
v -0.017773 0.319581 -0.094421
v -0.017771 -0.000439 -0.094420
v -0.319470 0.319474 -0.094545
v -0.319473 -0.000439 -0.094530
v -0.019592 0.319581 -0.095247
v -0.019592 -0.000439 -0.095248
v -0.019587 0.319581 0.089309
v -0.019558 -0.000439 0.089454
v -0.318188 0.319474 -0.095373
v -0.318191 -0.000439 -0.095389
v -0.318186 0.319475 0.089446
v -0.318191 -0.000439 0.089454
v -0.017768 0.319581 0.088810
v -0.017739 -0.000439 0.088956
v -0.319468 0.319475 0.088947
v -0.319473 -0.000439 0.088956
v -0.068533 0.180605 0.149160
v -0.068673 0.000044 0.148895
v -0.092783 0.180388 0.124909
v -0.092923 -0.000173 0.124645
v -0.044282 0.180621 0.124910
v -0.044422 0.000060 0.124646
v -0.068531 0.180405 0.100659
v -0.068671 -0.000157 0.100395
v -0.067696 -0.000885 0.233290
v 0.036563 -0.001008 0.085870
v -0.087328 0.023365 0.219053
v 0.016930 0.023241 0.071633
v -0.047887 0.023365 0.247279
v 0.056372 0.023241 0.099859
v -0.067519 0.047615 0.233042
v 0.036740 0.047492 0.085623
v -0.045713 0.242666 -0.093253
v -0.046013 0.243797 0.087058
v -0.021650 0.218634 -0.093062
v -0.021950 0.219765 0.087249
v -0.069745 0.218634 -0.093142
v -0.070046 0.219765 0.087169
v -0.317540 0.219765 0.087169
v -0.317240 0.218634 -0.093142
v -0.293207 0.242666 -0.093253
v -0.293508 0.243797 0.087058
v -0.269176 0.218634 -0.093062
v -0.269476 0.219765 0.087249
v -0.244385 0.242666 -0.093253
v -0.244685 0.243797 0.087058
v -0.220353 0.218634 -0.093062
v -0.220653 0.219765 0.087249
v -0.268417 0.218634 -0.093142
v -0.268717 0.219765 0.087169
v -0.234358 0.203616 -0.093047
v -0.234658 0.204748 0.087264
v -0.194435 0.209958 -0.093253
v -0.194735 0.211089 0.087058
v -0.170403 0.185926 -0.093062
v -0.170704 0.187057 0.087249
v -0.218467 0.185926 -0.093142
v -0.218768 0.187057 0.087169
v -0.153859 0.203616 -0.093007
v -0.154159 0.204748 0.087304
v -0.144861 0.242666 -0.093253
v -0.145161 0.243797 0.087058
v -0.120829 0.218634 -0.093062
v -0.121130 0.219765 0.087249
v -0.168893 0.218634 -0.093142
v -0.169194 0.219765 0.087169
v -0.095287 0.242666 -0.093253
v -0.095587 0.243797 0.087058
v -0.071255 0.218634 -0.093062
v -0.071556 0.219765 0.087249
v -0.119319 0.218634 -0.093142
v -0.119620 0.219765 0.087169
v -0.017764 0.319581 0.088815
v -0.319464 0.319475 0.088952
vn 0.0002 0.0002 1.0000
vn -1.0000 -0.0000 -0.0000
vn -0.0000 -1.0000 -0.0000
vn 1.0000 -0.0000 -0.0001
vn 0.0004 -0.0000 -1.0000
vn -0.6893 -0.7244 -0.0000
vn 0.6954 -0.7187 -0.0000
vn 0.0003 -0.4144 -0.9101
vn -0.0000 0.7029 -0.7113
vn 0.0002 -0.4160 -0.9093
vn 0.6884 -0.7253 -0.0000
vn -0.6839 -0.7296 -0.0000
vn -0.7071 0.0016 -0.7071
vn -0.0048 1.0000 -0.0041
vn 0.0048 -1.0000 0.0041
vn 0.7071 0.0005 -0.7071
vn 0.7071 -0.0016 0.7071
vn -0.7071 -0.0005 0.7071
vn -0.5770 0.7071 -0.4087
vn -0.5820 0.0063 0.8132
vn 0.5820 -0.0063 -0.8132
vn 0.5776 0.7071 0.4079
vn 0.5770 -0.7071 0.4087
vn -0.5776 -0.7071 -0.4079
vn 0.7067 0.7076 -0.0033
vn -0.7071 0.7071 -0.0056
vn 0.7313 -0.6820 0.0055
vn 0.7071 0.7071 -0.0033
vn 0.7304 -0.6830 0.0055
vn -0.7439 -0.6682 0.0030
vn -0.7067 -0.7075 0.0033
vn -0.0000 1.0000 -0.0063
vn -0.0004 1.0000 -0.0000
vt 0.881085 0.747334
vt 0.001586 0.754497
vt 0.779240 0.825556
vt 0.000889 0.754201
vt 0.556247 0.084559
vt 0.881085 0.278505
vt 0.001586 0.276060
vt 0.559725 0.747334
vt 0.620906 0.825556
vt 0.561516 0.754497
vt 0.561516 0.276060
vt 0.556247 0.274560
vt 0.559725 0.278505
vt 0.560957 0.999542
vt 0.559997 0.754497
vt 0.779240 0.825556
vt 0.559629 0.754201
vt 0.001461 1.000485
vt 0.001666 0.084559
vt 0.559997 0.276060
vt 0.558237 0.756309
vt 0.620906 0.825556
vt 0.001467 0.754497
vt 0.001467 0.276060
vt -0.001259 0.757252
vt 0.001666 0.274560
vt 0.779240 0.889838
vt 0.620906 0.889838
vt 0.779240 0.894196
vt 0.620906 0.894196
vt 0.000889 0.999987
vt 0.843431 0.834020
vt 0.559629 0.999987
vt 0.584971 0.834020
vt 0.843431 0.880715
vt 0.584971 0.880715
vt 0.860229 0.223696
vt 0.570973 0.223696
vt 0.860229 0.270392
vt 0.570973 0.270392
vt 0.864036 0.019600
vt 0.574481 0.019600
vt 0.864036 0.265386
vt 0.574481 0.265386
vt 0.643547 0.189785
vt 0.801882 0.189785
vt 0.643547 0.121144
vt 0.801882 0.121144
vt 0.796850 0.126175
vt 0.638516 0.126175
vt 0.796850 0.190458
vt 0.638516 0.190458
vt 0.614501 0.233160
vt 0.614501 0.067828
vt 0.807471 0.233160
vt 0.807471 0.067828
vt 0.837662 0.256307
vt 0.837662 0.012290
vt 0.603148 0.256307
vt 0.603148 0.012290
vt 0.596839 0.248495
vt 0.600974 0.038168
vt 0.856850 0.249425
vt 0.860985 0.039097
vt 0.865827 0.253817
vt 0.865827 0.011950
vt 0.582702 0.253817
vt 0.582702 0.011950
vt 0.061090 0.027121
vt 0.021563 0.043733
vt 0.278224 0.006309
vt 0.154904 0.045218
vt 0.104813 0.047256
vt 0.021593 0.080283
vt 0.313091 0.042591
vt 0.154933 0.081769
vt 0.021992 0.007186
vt 0.019490 0.049734
vt 0.155332 0.008672
vt 0.242412 0.042591
vt 0.022022 0.043735
vt 0.061098 0.027503
vt 0.155362 0.045221
vt 0.278222 0.078874
vt 0.059093 0.027121
vt 0.021563 0.043733
vt 0.278224 0.006309
vt 0.154904 0.045218
vt 0.102816 0.047256
vt 0.021593 0.080283
vt 0.313091 0.042591
vt 0.154933 0.081769
vt 0.021992 0.007186
vt 0.017493 0.049734
vt 0.155332 0.008672
vt 0.242412 0.042591
vt 0.022022 0.043735
vt 0.059101 0.027503
vt 0.155362 0.045221
vt 0.278222 0.078874
vt 0.156305 0.044543
vt 0.157354 0.048224
vt 0.019471 0.044599
vt 0.018129 0.049095
vt 0.156304 0.005095
vt 0.151787 0.009027
vt 0.020277 0.005270
vt 0.032941 0.008789
vt 0.157100 0.083087
vt 0.017769 0.081880
vt 0.017769 0.081880
vt 0.032876 0.058655
vt 0.157100 0.083087
vt 0.151722 0.058893
vt 0.157354 0.048224
vt 0.156305 0.044543
vt 0.018129 0.049095
vt 0.019471 0.044599
vt 0.156304 0.005095
vt 0.020277 0.005270
vt 0.157354 0.048224
vt 0.156305 0.044543
vt 0.018129 0.049095
vt 0.019471 0.044599
vt 0.155032 0.052868
vt 0.156304 0.005095
vt 0.024625 0.053069
vt 0.020277 0.005270
vt 0.157100 0.083087
vt 0.151870 0.008709
vt 0.017769 0.081880
vt 0.033024 0.008471
vt 0.154991 0.073597
vt 0.024583 0.073798
vt 0.157354 0.048224
vt 0.156305 0.044543
vt 0.018129 0.049095
vt 0.019471 0.044599
vt 0.156304 0.005095
vt 0.155045 0.038899
vt 0.020277 0.005270
vt 0.024637 0.039100
vt 0.157100 0.083087
vt 0.155154 0.050077
vt 0.017769 0.081880
vt 0.024746 0.050278
vt 0.154986 0.014410
vt 0.024578 0.014612
vt 0.157354 0.048224
vt 0.156305 0.044543
vt 0.018129 0.049095
vt 0.019471 0.044599
vt 0.156304 0.005095
vt 0.151632 0.061589
vt 0.020277 0.005270
vt 0.032786 0.061351
vt 0.157100 0.083087
vt 0.155166 0.036664
vt 0.017769 0.081880
vt 0.024758 0.036865
vt 0.157354 0.048224
vt 0.156305 0.044543
vt 0.018129 0.049095
vt 0.019471 0.044599
vt 0.156304 0.005095
vt 0.020277 0.005270
vt 0.157100 0.083087
vt 0.017769 0.081880
vt 0.561516 0.754497
vt 0.001467 0.754497
s 0
usemtl Material
f 4/11/1 3/10/1 7/23/1 8/24/1
f 8/25/2 7/21/2 5/14/2 6/18/2
f 6/19/3 2/5/3 4/12/3 8/26/3
f 2/6/4 1/1/4 3/8/4 4/13/4
f 6/20/5 5/15/5 1/2/5 2/7/5
f 5/16/6 7/22/6 10/28/6 9/27/6
f 3/9/7 1/3/7 11/29/7 12/30/7
f 1/4/8 5/17/8 14/33/8 13/31/8
f 13/32/9 14/34/9 16/36/9 15/35/9
f 17/37/9 18/38/9 20/40/9 19/39/9
f 22/42/10 21/41/10 23/43/10 24/44/10
f 27/47/11 28/48/11 26/46/11 25/45/11
f 29/49/12 30/50/12 32/52/12 31/51/12
f 36/56/5 35/55/5 33/53/5 34/54/5
f 38/58/4 37/57/4 39/59/4 40/60/4
f 44/64/2 43/63/2 41/61/2 42/62/2
f 46/66/1 45/65/1 47/67/1 48/68/1
f 7/23/33 3/10/33 105/169/33 106/170/33
usemtl Material.004
f 55/81/13 56/83/13 52/76/13 51/74/13
f 51/73/14 49/69/14 53/78/14
f 54/80/15 50/71/15 52/75/15
f 53/77/16 54/79/16 56/83/16 55/81/16
f 53/77/17 49/70/17 50/72/17 54/79/17
f 51/73/14 53/78/14 55/82/14
f 54/80/15 52/75/15 56/84/15
f 49/70/18 51/74/18 52/76/18 50/72/18
f 63/97/19 64/99/19 60/92/19 59/90/19
f 59/89/20 57/85/20 61/94/20
f 62/96/21 58/87/21 60/91/21
f 61/93/22 62/95/22 64/99/22 63/97/22
f 61/93/23 57/86/23 58/88/23 62/95/23
f 59/89/20 61/94/20 63/98/20
f 62/96/21 60/91/21 64/100/21
f 57/86/24 59/90/24 60/92/24 58/88/24
usemtl Material.003
f 65/101/25 66/103/25 68/107/25 67/105/25
f 97/157/26 98/159/26 94/151/26 93/149/26
f 81/129/26 82/131/26 78/123/26 77/121/26
f 72/113/26 71/111/26 74/117/26 73/115/26
f 83/133/27 79/125/27 80/127/27 84/134/27
f 89/143/26 90/145/26 86/137/26 85/135/26
f 85/136/28 86/138/28 88/141/28 87/139/28
f 88/142/29 87/140/29 91/147/29 92/148/29
f 90/146/30 84/134/30 83/133/30 89/144/30
f 97/158/31 91/147/31 92/148/31 98/160/31
f 93/150/28 94/152/28 96/155/28 95/153/28
f 103/167/26 104/168/26 100/163/26 99/161/26
f 69/109/26 70/110/26 66/104/26 65/102/26
f 99/162/28 100/164/28 102/166/28 101/165/28
f 82/132/32 81/130/32 72/114/32 71/112/32
f 95/154/32 96/156/32 68/108/32 67/106/32
f 73/116/28 74/118/28 76/120/28 75/119/28
f 77/122/28 78/124/28 80/128/28 79/126/28
